<svg xmlns="http://www.w3.org/2000/svg" width="32" height="32" viewBox="0 0 32 32">
  <path d="M 20.38 14.16 L 20.34 14.19 L 20.34 14.28 L 20.38 14.31 L 20.38 14.38 L 20.41 14.41 L 20.41 14.44 L 20.44 14.47 L 20.44 14.53 L 20.47 14.56 L 20.47 14.59 L 20.50 14.62 L 20.50 14.66 L 20.53 14.69 L 20.53 14.72 L 20.59 14.78 L 20.59 14.81 L 20.62 14.84 L 20.62 14.88 L 20.75 15.00 L 20.78 15.00 L 20.81 15.03 L 20.88 15.03 L 20.91 15.06 L 20.94 15.06 L 20.97 15.09 L 21.09 15.09 L 21.12 15.12 L 21.16 15.12 L 21.19 15.09 L 21.25 15.09 L 21.25 15.06 L 21.28 15.03 L 21.28 14.97 L 21.31 14.94 L 21.31 14.75 L 21.28 14.72 L 21.28 14.66 L 21.25 14.62 L 21.25 14.56 L 21.22 14.53 L 21.22 14.50 L 21.00 14.28 L 20.97 14.28 L 20.94 14.25 L 20.91 14.25 L 20.88 14.22 L 20.84 14.22 L 20.81 14.19 L 20.75 14.19 L 20.72 14.16 L 20.66 14.16 L 20.62 14.12 L 20.47 14.12 L 20.44 14.16 Z" fill="black" stroke="none" id="path0"/>
  <path d="M 10.81 14.16 L 10.78 14.16 L 10.75 14.12 L 10.69 14.12 L 10.66 14.16 L 10.53 14.16 L 10.50 14.19 L 10.44 14.19 L 10.41 14.22 L 10.38 14.22 L 10.34 14.25 L 10.31 14.25 L 10.06 14.50 L 10.06 14.53 L 10.03 14.56 L 10.03 14.59 L 10.00 14.62 L 10.00 14.66 L 9.97 14.69 L 9.97 14.75 L 9.94 14.78 L 9.94 14.88 L 9.91 14.91 L 9.91 15.03 L 9.94 15.06 L 9.94 15.09 L 10.00 15.09 L 10.03 15.12 L 10.09 15.12 L 10.12 15.09 L 10.25 15.09 L 10.28 15.06 L 10.31 15.06 L 10.34 15.03 L 10.38 15.03 L 10.41 15.00 L 10.44 15.00 L 10.69 14.75 L 10.69 14.72 L 10.72 14.69 L 10.72 14.66 L 10.75 14.62 L 10.75 14.59 L 10.78 14.56 L 10.78 14.53 L 10.81 14.50 L 10.81 14.47 L 10.84 14.44 L 10.84 14.38 L 10.88 14.34 L 10.88 14.25 L 10.84 14.22 L 10.84 14.19 Z" fill="black" stroke="none" id="path1"/>
  <path d="M 21.97 11.53 L 21.97 11.59 L 22.00 11.62 L 22.00 11.66 L 22.03 11.69 L 22.03 11.72 L 22.09 11.78 L 22.09 11.81 L 22.31 12.03 L 22.34 12.03 L 22.41 12.09 L 22.50 12.09 L 22.53 12.12 L 22.69 12.12 L 22.72 12.09 L 22.78 12.09 L 22.94 11.94 L 22.94 11.78 L 22.91 11.75 L 22.91 11.72 L 22.88 11.69 L 22.88 11.66 L 22.69 11.47 L 22.66 11.47 L 22.62 11.44 L 22.56 11.44 L 22.53 11.41 L 22.19 11.41 L 22.16 11.44 L 22.09 11.44 L 22.06 11.47 L 22.03 11.47 Z" fill="black" stroke="none" id="path2"/>
  <path d="M 9.22 11.50 L 9.16 11.44 L 9.12 11.44 L 9.09 11.41 L 9.00 11.41 L 8.97 11.38 L 8.81 11.38 L 8.78 11.41 L 8.66 11.41 L 8.62 11.44 L 8.59 11.44 L 8.56 11.47 L 8.53 11.47 L 8.41 11.59 L 8.41 11.62 L 8.34 11.69 L 8.34 11.72 L 8.28 11.78 L 8.28 11.81 L 8.25 11.84 L 8.25 12.03 L 8.28 12.06 L 8.28 12.09 L 8.31 12.09 L 8.34 12.12 L 8.66 12.12 L 8.69 12.09 L 8.75 12.09 L 8.78 12.06 L 8.84 12.06 L 8.88 12.03 L 8.91 12.03 L 8.97 11.97 L 9.00 11.97 L 9.16 11.81 L 9.16 11.78 L 9.22 11.72 L 9.22 11.69 L 9.25 11.66 L 9.25 11.62 L 9.22 11.59 L 9.25 11.56 L 9.22 11.53 Z" fill="black" stroke="none" id="path3"/>
  <path d="M 22.22 8.19 L 22.16 8.12 L 22.12 8.12 L 22.09 8.09 L 22.06 8.09 L 22.03 8.06 L 21.97 8.06 L 21.94 8.03 L 21.78 8.03 L 21.75 8.06 L 21.62 8.06 L 21.59 8.09 L 21.53 8.09 L 21.50 8.12 L 21.44 8.12 L 21.41 8.16 L 21.38 8.16 L 21.31 8.22 L 21.28 8.22 L 21.22 8.28 L 21.19 8.28 L 21.16 8.31 L 21.16 8.38 L 21.12 8.41 L 21.12 8.47 L 21.25 8.59 L 21.28 8.59 L 21.31 8.62 L 21.38 8.62 L 21.41 8.66 L 21.81 8.66 L 21.84 8.62 L 21.91 8.62 L 21.94 8.59 L 21.97 8.59 L 22.03 8.53 L 22.06 8.53 L 22.16 8.44 L 22.16 8.41 L 22.22 8.34 Z" fill="black" stroke="none" id="path4"/>
  <path d="M 9.06 8.19 L 9.06 8.31 L 9.09 8.34 L 9.09 8.38 L 9.28 8.56 L 9.31 8.56 L 9.34 8.59 L 9.41 8.59 L 9.44 8.62 L 9.50 8.62 L 9.53 8.66 L 9.91 8.66 L 9.94 8.62 L 10.00 8.62 L 10.03 8.59 L 10.06 8.59 L 10.09 8.56 L 10.12 8.56 L 10.16 8.53 L 10.19 8.53 L 10.22 8.50 L 10.22 8.41 L 10.00 8.19 L 9.97 8.19 L 9.94 8.16 L 9.91 8.16 L 9.88 8.12 L 9.84 8.12 L 9.81 8.09 L 9.75 8.09 L 9.72 8.06 L 9.62 8.06 L 9.59 8.03 L 9.28 8.03 L 9.25 8.06 L 9.19 8.06 Z" fill="black" stroke="none" id="path5"/>
  <path d="M 12.25 5.12 L 12.22 5.16 L 12.22 5.28 L 12.19 5.31 L 12.19 5.34 L 12.22 5.38 L 12.22 5.66 L 12.25 5.69 L 12.25 5.75 L 12.31 5.81 L 12.31 5.84 L 12.38 5.91 L 12.38 5.94 L 12.41 5.97 L 12.41 6.00 L 12.56 6.16 L 12.59 6.16 L 12.66 6.22 L 12.69 6.22 L 12.72 6.25 L 12.78 6.25 L 12.81 6.28 L 12.97 6.28 L 12.97 5.88 L 12.94 5.84 L 12.94 5.72 L 12.91 5.69 L 12.91 5.62 L 12.88 5.59 L 12.88 5.56 L 12.84 5.53 L 12.84 5.50 L 12.78 5.44 L 12.78 5.41 L 12.53 5.16 L 12.50 5.16 L 12.47 5.12 Z" fill="black" stroke="none" id="path6"/>
  <path d="M 19.03 5.06 L 18.97 5.06 L 18.94 5.09 L 18.88 5.09 L 18.84 5.12 L 18.81 5.12 L 18.75 5.19 L 18.72 5.19 L 18.56 5.34 L 18.56 5.38 L 18.53 5.41 L 18.53 5.47 L 18.50 5.50 L 18.50 5.53 L 18.47 5.56 L 18.47 5.62 L 18.44 5.66 L 18.44 5.75 L 18.41 5.78 L 18.41 6.03 L 18.44 6.06 L 18.44 6.16 L 18.50 6.22 L 18.56 6.22 L 18.59 6.19 L 18.66 6.19 L 18.69 6.16 L 18.75 6.16 L 18.81 6.09 L 18.84 6.09 L 18.97 5.97 L 18.97 5.94 L 19.03 5.88 L 19.03 5.84 L 19.09 5.78 L 19.09 5.72 L 19.12 5.69 L 19.12 5.59 L 19.16 5.56 L 19.16 5.22 L 19.12 5.19 L 19.12 5.16 Z" fill="black" stroke="none" id="path7"/>
  <path d="M 16.88 4.50 L 15.34 5.53 L 15.44 8.09 L 14.44 7.41 L 15.44 8.50 L 15.16 10.44 L 14.00 7.56 L 14.94 5.88 L 13.97 6.69 L 13.34 5.28 L 13.56 8.38 L 11.72 5.72 L 11.66 6.81 L 10.56 6.59 L 13.59 9.16 L 14.62 11.88 L 14.00 11.84 L 12.09 8.03 L 12.09 9.38 L 9.91 6.84 L 9.78 7.44 L 11.34 9.12 L 10.16 9.22 L 11.94 9.78 L 13.69 11.91 L 12.22 11.38 L 11.31 9.94 L 11.38 11.00 L 9.09 8.94 L 8.94 9.53 L 10.31 10.84 L 7.81 10.12 L 13.22 12.62 L 11.66 12.72 L 10.00 11.72 L 11.44 13.09 L 10.16 13.19 L 9.16 12.41 L 9.34 13.09 L 8.31 12.97 L 9.75 13.44 L 8.91 14.47 L 10.06 13.56 L 12.72 13.22 L 11.34 14.72 L 11.69 15.34 L 13.56 13.09 L 14.59 14.47 L 14.00 17.81 L 12.84 18.66 L 8.84 19.69 L 8.16 20.84 L 9.62 19.75 L 11.56 19.44 L 8.31 21.81 L 9.78 21.12 L 9.47 23.28 L 10.56 20.78 L 13.91 18.97 L 10.31 22.66 L 10.53 24.44 L 10.69 22.81 L 12.19 21.12 L 11.38 23.62 L 11.81 24.91 L 11.84 23.19 L 12.75 23.84 L 12.19 22.66 L 12.50 21.34 L 13.94 20.00 L 13.00 21.59 L 13.25 22.72 L 13.56 21.31 L 15.16 19.25 L 12.72 24.97 L 13.53 23.69 L 13.94 23.91 L 15.25 21.22 L 15.28 22.78 L 13.62 25.66 L 15.19 23.78 L 15.66 26.97 L 15.62 23.91 L 16.69 25.47 L 16.78 24.91 L 17.38 24.97 L 15.94 23.44 L 15.84 21.47 L 16.56 23.72 L 16.81 22.69 L 17.59 23.84 L 17.69 25.75 L 18.19 24.72 L 19.06 25.09 L 16.31 21.31 L 16.00 19.97 L 18.19 22.75 L 18.44 22.16 L 16.28 19.12 L 18.84 21.41 L 19.22 22.62 L 18.66 23.88 L 19.47 23.25 L 19.62 24.78 L 20.03 23.59 L 19.16 21.09 L 20.72 22.81 L 20.81 24.47 L 21.03 22.50 L 17.34 19.03 L 20.56 20.53 L 21.97 23.28 L 22.28 22.62 L 21.62 21.12 L 23.03 21.62 L 19.62 19.38 L 23.38 20.72 L 21.81 19.34 L 18.22 18.56 L 17.09 17.28 L 17.09 13.50 L 18.03 13.12 L 19.69 15.38 L 19.88 14.69 L 18.56 13.25 L 21.16 13.56 L 22.38 14.50 L 21.53 13.47 L 23.16 13.00 L 22.03 13.00 L 22.19 12.41 L 21.09 13.22 L 19.81 13.12 L 21.25 11.69 L 19.56 12.75 L 18.16 12.62 L 23.34 10.12 L 20.97 10.84 L 22.34 9.53 L 22.22 8.94 L 20.19 10.94 L 20.06 9.94 L 19.06 11.38 L 16.84 12.25 L 19.50 9.69 L 21.22 9.22 L 20.03 9.12 L 21.56 7.19 L 21.19 6.94 L 19.28 9.34 L 19.19 8.06 L 18.38 10.09 L 16.88 11.03 L 17.72 9.12 L 20.75 6.59 L 19.69 6.81 L 19.59 5.72 L 17.81 8.28 L 17.88 5.25 L 17.41 6.59 L 16.44 5.69 L 17.34 7.97 L 15.91 10.56 L 15.91 9.22 L 17.00 7.88 L 15.91 8.62 L 15.88 5.91 Z" fill="black" stroke="none" id="path8"/>
  <path d="M 14.34 4.47 L 14.31 4.50 L 14.31 4.53 L 14.28 4.56 L 14.28 4.91 L 14.31 4.94 L 14.31 4.97 L 14.34 5.00 L 14.34 5.03 L 14.38 5.06 L 14.38 5.09 L 14.50 5.22 L 14.53 5.22 L 14.59 5.28 L 14.62 5.28 L 14.66 5.31 L 14.69 5.31 L 14.72 5.34 L 14.91 5.34 L 14.94 5.31 L 14.97 5.31 L 15.00 5.28 L 15.00 5.25 L 15.03 5.22 L 15.03 5.03 L 15.00 5.00 L 15.00 4.91 L 14.97 4.88 L 14.97 4.84 L 14.94 4.81 L 14.94 4.78 L 14.88 4.72 L 14.88 4.69 L 14.75 4.56 L 14.72 4.56 L 14.69 4.53 L 14.66 4.53 L 14.62 4.50 L 14.59 4.50 L 14.56 4.47 Z" fill="black" stroke="none" id="path9"/>
  <path d="M 15.59 3.72 L 15.56 3.75 L 15.53 3.75 L 15.50 3.78 L 15.47 3.78 L 15.44 3.81 L 15.44 3.84 L 15.38 3.91 L 15.38 3.94 L 15.34 3.97 L 15.34 4.06 L 15.31 4.09 L 15.31 4.31 L 15.34 4.34 L 15.34 4.47 L 15.38 4.50 L 15.38 4.53 L 15.41 4.56 L 15.41 4.59 L 15.47 4.66 L 15.47 4.69 L 15.50 4.72 L 15.53 4.72 L 15.59 4.78 L 15.75 4.78 L 15.78 4.75 L 15.81 4.75 L 15.84 4.72 L 15.84 4.69 L 15.88 4.66 L 15.88 4.62 L 15.91 4.59 L 15.91 4.50 L 15.94 4.47 L 15.94 4.31 L 15.97 4.28 L 15.97 4.22 L 15.94 4.19 L 15.94 4.03 L 15.91 4.00 L 15.91 3.94 L 15.88 3.91 L 15.88 3.88 L 15.84 3.84 L 15.84 3.81 L 15.78 3.75 L 15.75 3.75 L 15.72 3.72 Z" fill="black" stroke="none" id="path10"/>
</svg>